<svg id="search" width="21" height="19" viewBox="0 0 21 19"  xmlns="http://www.w3.org/2000/svg">
<path d="M18.6539 15.855L13.328 11.0363C14.1545 10.0696 14.6016 8.8877 14.6016 7.64453C14.6016 6.15645 13.9597 4.76113 12.7989 3.70908C11.6382 2.65703 10.0919 2.07812 8.44922 2.07812C6.80654 2.07812 5.26025 2.65889 4.09951 3.70908C2.93672 4.75928 2.29688 6.15645 2.29688 7.64453C2.29688 9.13076 2.93877 10.5298 4.09951 11.58C5.26025 12.632 6.80449 13.2109 8.44922 13.2109C9.82324 13.2109 11.1275 12.8064 12.196 12.0605L17.5219 16.8773C17.5375 16.8915 17.556 16.9027 17.5764 16.9103C17.5969 16.918 17.6187 16.9219 17.6408 16.9219C17.6629 16.9219 17.6848 16.918 17.7052 16.9103C17.7256 16.9027 17.7442 16.8915 17.7598 16.8773L18.6539 16.0702C18.6695 16.0561 18.6819 16.0393 18.6904 16.0208C18.6988 16.0024 18.7032 15.9826 18.7032 15.9626C18.7032 15.9426 18.6988 15.9228 18.6904 15.9044C18.6819 15.8859 18.6695 15.8691 18.6539 15.855ZM11.6977 10.5836C10.8281 11.3685 9.67559 11.8008 8.44922 11.8008C7.22285 11.8008 6.07031 11.3685 5.20078 10.5836C4.3333 9.79688 3.85547 8.7541 3.85547 7.64453C3.85547 6.53496 4.3333 5.49033 5.20078 4.70547C6.07031 3.92061 7.22285 3.48828 8.44922 3.48828C9.67559 3.48828 10.8302 3.91875 11.6977 4.70547C12.5651 5.49219 13.043 6.53496 13.043 7.64453C13.043 8.7541 12.5651 9.79873 11.6977 10.5836Z" />
</svg>
