<svg  width="20" height="19" viewBox="0 0 20 19" xmlns="http://www.w3.org/2000/svg">
<path d="M6.79102 18.8607C7.58492 18.8607 8.22852 18.2206 8.22852 17.431C8.22852 16.6413 7.58492 16.0012 6.79102 16.0012C5.99711 16.0012 5.35352 16.6413 5.35352 17.431C5.35352 18.2206 5.99711 18.8607 6.79102 18.8607Z" />
<path d="M15.5244 18.8607C16.3183 18.8607 16.9619 18.2206 16.9619 17.431C16.9619 16.6413 16.3183 16.0012 15.5244 16.0012C14.7305 16.0012 14.0869 16.6413 14.0869 17.431C14.0869 18.2206 14.7305 18.8607 15.5244 18.8607Z"/>
<path d="M19.4091 1.93894C19.3496 1.86605 19.2747 1.80716 19.1896 1.76651C19.1045 1.72585 19.0115 1.70445 18.9171 1.70383H5.6154L6.03068 2.97471H18.0802L16.3743 10.6H6.79096L3.87123 1.40517C3.83965 1.30761 3.78481 1.21908 3.71138 1.14716C3.63796 1.07524 3.54813 1.02205 3.44957 0.992136L0.830114 0.191482C0.749569 0.166865 0.664939 0.158268 0.581054 0.166182C0.497169 0.174095 0.415673 0.198364 0.341218 0.237603C0.19085 0.31685 0.0782919 0.452262 0.0283059 0.614049C-0.0216802 0.775837 -0.00499991 0.950748 0.0746772 1.1003C0.154354 1.24986 0.290502 1.36181 0.453168 1.41153L2.74679 2.11051L5.67929 11.3244L4.63151 12.1759L4.54846 12.2585C4.28928 12.5555 4.14238 12.9332 4.13305 13.3264C4.12372 13.7196 4.25255 14.1037 4.49735 14.4126C4.67148 14.6232 4.89276 14.7904 5.14348 14.9007C5.3942 15.0111 5.66741 15.0615 5.94124 15.0481H16.6043C16.7738 15.0481 16.9363 14.9811 17.0561 14.8619C17.1759 14.7428 17.2432 14.5811 17.2432 14.4126C17.2432 14.2441 17.1759 14.0825 17.0561 13.9633C16.9363 13.8441 16.7738 13.7772 16.6043 13.7772H5.83902C5.76545 13.7747 5.69377 13.7533 5.6309 13.7153C5.56804 13.6772 5.51612 13.6236 5.48015 13.5597C5.44418 13.4958 5.42538 13.4238 5.42557 13.3506C5.42577 13.2774 5.44494 13.2054 5.48124 13.1417L7.02096 11.8709H16.8854C17.0331 11.8744 17.1775 11.827 17.294 11.7367C17.4105 11.6463 17.4919 11.5186 17.5243 11.3752L19.5496 2.47906C19.569 2.38433 19.5665 2.28644 19.5421 2.19284C19.5178 2.09924 19.4723 2.0124 19.4091 1.93894Z"/>
</svg>
